<svg fill="none" xmlns="http://www.w3.org/2000/svg">
<circle cx="225" cy="32" r="15" fill="white"/>
<path fill-rule="evenodd" clip-rule="evenodd" d="M234.993 36.2409C234.946 37.2936 234.778 38.0123 234.534 38.6415C234.02 39.9699 232.97 41.02 231.641 41.5337C231.013 41.7781 230.294 41.9452 229.241 41.9933C228.187 42.0414 227.85 42.053 225.164 42.053C222.478 42.053 222.141 42.0414 221.087 41.9933C220.034 41.9452 219.315 41.7781 218.686 41.5337C218.026 41.2854 217.428 40.8962 216.934 40.3929C216.431 39.8992 216.042 39.3013 215.794 38.6415C215.55 38.0126 215.382 37.2936 215.334 36.2411C215.286 35.1863 215.274 34.8494 215.274 32.1637C215.274 29.478 215.286 29.1411 215.334 28.0865C215.382 27.0338 215.549 26.3151 215.793 25.6859C216.042 25.0261 216.431 24.4282 216.934 23.9345C217.428 23.4312 218.026 23.042 218.686 22.7937C219.315 22.5493 220.034 22.3822 221.087 22.3341C222.141 22.286 222.478 22.2744 225.164 22.2744C227.849 22.2744 228.186 22.286 229.241 22.3343C230.294 22.3822 231.012 22.5493 231.641 22.7934C232.301 23.0418 232.899 23.4312 233.393 23.9345C233.896 24.4285 234.286 25.0261 234.534 25.6859C234.778 26.3151 234.946 27.0338 234.994 28.0865C235.042 29.1411 235.053 29.478 235.053 32.1637C235.053 34.8494 235.042 35.1863 234.993 36.2409ZM232.133 25.1943C232.462 25.5133 232.714 25.902 232.873 26.3314C233.008 26.6798 233.17 27.2036 233.213 28.1677C233.261 29.2105 233.271 29.5232 233.271 32.164C233.271 34.8045 233.261 35.1172 233.213 36.1602C233.169 37.1244 233.008 37.6478 232.873 37.9963C232.54 38.8588 231.859 39.5405 230.996 39.8731C230.648 40.0087 230.124 40.1698 229.16 40.2137C228.117 40.2613 227.804 40.2713 225.163 40.2713C222.523 40.2713 222.21 40.2613 221.167 40.2137C220.203 40.1698 219.68 40.0087 219.331 39.8731C218.901 39.7147 218.513 39.4619 218.194 39.1334C217.866 38.8144 217.613 38.426 217.454 37.9963C217.319 37.6478 217.158 37.1244 217.114 36.1602C217.066 35.1172 217.056 34.8045 217.056 32.164C217.056 29.5232 217.066 29.2105 217.114 28.1677C217.158 27.2036 217.319 26.6798 217.454 26.3314C217.613 25.9017 217.866 25.5133 218.194 25.1943C218.513 24.8658 218.902 24.613 219.331 24.4545C219.68 24.3192 220.203 24.1581 221.167 24.1139C222.21 24.0664 222.523 24.0564 225.164 24.0564C227.804 24.0564 228.117 24.0666 229.16 24.1142C230.124 24.1581 230.648 24.3192 230.996 24.4545C231.426 24.613 231.814 24.8658 232.133 25.1943Z" fill="#F07D00"/>
<path fill-rule="evenodd" clip-rule="evenodd" d="M225.164 37.2418C222.359 37.2418 220.085 34.9684 220.085 32.1637C220.085 29.359 222.359 27.0856 225.164 27.0856C227.968 27.0856 230.242 29.359 230.242 32.1637C230.242 34.9684 227.968 37.2418 225.164 37.2418ZM225.164 35.4601C226.984 35.4601 228.46 33.9843 228.46 32.1637C228.46 30.3431 226.984 28.8673 225.164 28.8673C223.343 28.8673 221.867 30.3431 221.867 32.1637C221.867 33.9843 223.343 35.4601 225.164 35.4601Z" fill="#F07D00"/>
<path d="M230.443 28.0715C229.787 28.0715 229.256 27.5402 229.256 26.8848C229.256 26.2294 229.787 25.698 230.443 25.698C231.098 25.698 231.629 26.2294 231.629 26.8848C231.629 27.5402 231.098 28.0715 230.443 28.0715Z" fill="#F07D00"/>
</svg>