<svg width="265" fill="none" xmlns="http://www.w3.org/2000/svg">
<path d="M82.8526 0.776367C84.0635 0.776367 84.9717 1.15467 85.5771 1.83563C86.1826 2.51658 86.4096 3.34885 86.4096 4.40811C86.4096 5.46737 86.1069 6.29964 85.5015 7.05625C84.896 7.81287 83.9878 8.19117 82.7769 8.19117C81.6417 8.19117 80.7335 7.81287 80.2037 7.05625C79.6739 6.29964 79.3712 5.39171 79.3712 4.40811C79.3712 3.34885 79.6739 2.51658 80.2037 1.83563C80.8092 1.15467 81.7174 0.776367 82.8526 0.776367ZM85.9556 13.9414V55.2525H79.9767V13.9414H85.9556Z" fill="white"/>
<path d="M112.974 0.170898V55.2523H108.887L107.903 52.6798C106.844 53.6634 105.709 54.42 104.422 54.9497C103.135 55.4793 101.773 55.7819 100.411 55.7819C99.2756 55.7819 98.2161 55.555 97.1565 55.1767C96.097 54.7983 95.1888 54.1174 94.432 53.2851C93.6751 52.4528 93.0697 51.3936 92.5399 50.183C92.0858 48.9724 91.8588 47.4592 91.8588 45.7946V23.3989C91.8588 21.7344 92.0858 20.2968 92.5399 19.0106C92.994 17.7243 93.5995 16.6651 94.432 15.8328C95.1888 15.0005 96.097 14.3952 97.1565 13.9412C98.2161 13.5629 99.2756 13.336 100.411 13.336C101.546 13.336 102.757 13.5629 103.892 13.9412C105.027 14.3196 106.087 14.9248 107.071 15.6815V1.68412L112.974 0.170898ZM97.8376 44.5084C97.8376 46.2486 98.1404 47.5349 98.8215 48.4428C99.5026 49.3507 100.562 49.8047 102 49.8047C103.817 49.8047 105.482 49.0481 106.919 47.4592V21.7344C105.406 20.1455 103.817 19.3889 102 19.3889C100.487 19.3889 99.427 19.8428 98.8215 20.7508C98.1404 21.6587 97.8376 23.0206 97.8376 24.6852V44.5084Z" fill="white"/>
<path d="M132.424 36.7153C131.516 37.5476 130.381 38.3798 129.094 39.2878C127.808 40.1957 126.37 41.1793 124.705 42.2386V45.5677C124.705 47.0052 125.083 48.0645 125.916 48.8211C126.748 49.5777 127.732 49.956 129.019 49.956C130.305 49.956 131.365 49.5777 132.197 48.8211C133.03 48.0645 133.408 47.0052 133.408 45.5677V42.9195L138.857 41.482V45.719C138.857 47.3079 138.63 48.6698 138.1 49.8804C137.571 51.0909 136.889 52.1502 135.906 53.0581C134.997 53.9661 133.938 54.5714 132.727 55.0253C131.516 55.4793 130.229 55.7063 128.792 55.7063C127.354 55.7063 126.067 55.4793 124.932 55.0253C123.721 54.5714 122.661 53.8904 121.753 53.0581C120.845 52.1502 120.164 51.1666 119.634 49.8804C119.104 48.6698 118.877 47.2322 118.877 45.719V23.3989C118.877 21.8857 119.104 20.4481 119.634 19.2375C120.164 18.027 120.845 16.9677 121.753 16.0598C122.661 15.1518 123.721 14.5465 124.932 14.0926C126.143 13.6386 127.429 13.4116 128.867 13.4116C130.078 13.4116 131.289 13.5629 132.5 13.9412C133.711 14.3196 134.77 14.9248 135.754 15.7571C136.662 16.5894 137.495 17.7243 138.1 19.0862C138.706 20.4481 139.009 22.1883 139.009 24.2312C139.009 26.8037 138.479 29.0735 137.419 30.965C136.36 32.9322 134.695 34.8238 132.424 36.7153ZM124.705 36.4126C126.748 35.1264 128.262 33.9158 129.397 32.9322C130.759 31.646 131.819 30.3597 132.349 29.0735C132.954 27.7873 133.257 26.3497 133.257 24.6852C133.257 22.491 132.803 21.0534 131.97 20.2211C131.062 19.3889 130.078 18.9349 128.867 18.9349C127.581 18.9349 126.521 19.3889 125.84 20.2211C125.083 21.0534 124.78 22.1883 124.78 23.7016V36.4126H124.705Z" fill="white"/>
<path d="M147.485 0.776367C148.696 0.776367 149.604 1.15467 150.21 1.83563C150.815 2.51658 151.118 3.42451 151.118 4.40811C151.118 5.46737 150.815 6.29964 150.21 7.05625C149.604 7.81287 148.696 8.19117 147.485 8.19117C146.35 8.19117 145.442 7.81287 144.912 7.05625C144.382 6.29964 144.079 5.39171 144.079 4.40811C144.079 3.34885 144.382 2.51658 144.912 1.83563C145.442 1.15467 146.274 0.776367 147.485 0.776367ZM150.588 13.9414V55.2525H144.609V13.9414H150.588Z" fill="white"/>
<path d="M157.248 18.027C158.232 16.5894 159.594 15.4545 161.335 14.6222C163.075 13.7899 164.892 13.4116 166.86 13.4116C170.114 13.4116 172.611 14.4709 174.201 16.5894C175.79 18.7079 176.622 21.3561 176.622 24.6851V55.2523H172.838L171.779 52.9825C170.719 53.8147 169.584 54.4957 168.297 55.0253C167.011 55.5549 165.649 55.7819 164.211 55.7819C163.075 55.7819 162.016 55.555 160.956 55.1766C159.897 54.7983 158.989 54.193 158.156 53.3608C157.324 52.5285 156.718 51.4692 156.264 50.1073C155.81 48.7454 155.583 47.0809 155.583 45.1137C155.583 43.6005 155.734 42.1629 156.037 40.9523C156.34 39.6661 156.869 38.5312 157.551 37.3962C158.232 36.2613 159.14 35.2021 160.199 34.0671C161.259 33.0079 162.546 31.873 164.059 30.7381C165.043 29.9814 166.103 29.2248 167.314 28.4682C168.449 27.7116 169.735 26.8793 171.022 26.0471V24.7608C171.022 23.0206 170.644 21.6587 169.811 20.5994C168.979 19.5402 167.768 19.0106 166.103 19.0106C164.967 19.0106 163.908 19.3132 162.924 19.8428C162.016 20.3725 161.183 21.2047 160.654 22.1883L157.248 18.027ZM165.951 50.1073C166.86 50.1073 167.768 49.8804 168.6 49.502C169.433 49.1237 170.19 48.5184 170.946 47.7618V31.873C170.114 32.4026 169.433 32.8566 168.752 33.2349C168.146 33.6888 167.541 34.0671 166.935 34.5211C164.816 36.1857 163.378 37.7746 162.621 39.2878C161.864 40.801 161.486 42.4655 161.486 44.1301C161.486 46.2486 161.864 47.7618 162.697 48.6698C163.529 49.5777 164.665 50.1073 165.951 50.1073Z" fill="white"/>
<path d="M189.564 12.4282C192.062 12.4282 194.105 13.1848 195.619 14.6224C197.132 16.06 197.889 18.4811 197.889 21.7346C197.889 23.2478 197.738 24.534 197.359 25.5933C197.057 26.6525 196.527 27.7118 195.921 28.8467C195.467 29.6033 194.938 30.5113 194.256 31.4192C193.575 32.4028 192.97 33.3107 192.213 34.37C191.532 35.3536 190.851 36.3372 190.17 37.3208C189.488 38.3044 188.883 39.2123 188.353 40.0446C187.975 40.7255 187.672 41.2552 187.369 41.7848C187.142 42.3144 186.915 42.8441 186.764 43.298C186.613 43.8277 186.537 44.3573 186.461 44.8869C186.385 45.4922 186.386 46.1732 186.386 46.9298V50.4102H197.813V55.2525H181.466V46.9298C181.466 45.5679 181.618 44.206 181.92 42.8441C182.223 41.4822 182.753 40.1202 183.585 38.607C184.039 37.8504 184.645 36.9425 185.326 35.9589C186.007 34.9753 186.688 33.9917 187.445 33.0081C188.126 32.0245 188.883 31.0409 189.564 30.0573C190.245 29.0737 190.851 28.1658 191.305 27.4092C191.91 26.3499 192.364 25.3663 192.591 24.3827C192.818 23.4748 192.97 22.4912 192.97 21.5076C192.97 19.9187 192.667 18.7838 192.062 18.1028C191.456 17.4219 190.548 17.1192 189.413 17.1192C188.202 17.1192 187.294 17.4219 186.688 18.0272C186.007 18.6324 185.704 19.5404 185.704 20.751V22.0372H181.163V20.6753C181.163 18.1028 181.92 16.06 183.358 14.5467C184.796 13.1848 186.915 12.4282 189.564 12.4282Z" fill="#FA9401"/>
<path d="M218.626 47.535C218.626 48.8969 218.399 50.0319 217.945 51.0911C217.491 52.1504 216.885 52.9826 216.128 53.7393C215.372 54.4959 214.388 55.0255 213.328 55.4038C212.269 55.7821 211.133 55.9334 209.998 55.9334C208.787 55.9334 207.652 55.7821 206.593 55.4038C205.533 55.0255 204.625 54.4959 203.868 53.7393C203.111 52.9826 202.506 52.1504 202.052 51.0911C201.598 50.0319 201.37 48.8969 201.37 47.535V20.8266C201.37 19.4647 201.598 18.3298 202.052 17.2705C202.506 16.2113 203.111 15.379 203.868 14.6224C204.625 13.9414 205.533 13.3361 206.593 12.9578C207.652 12.5795 208.787 12.3525 209.998 12.3525C211.209 12.3525 212.269 12.5795 213.328 12.9578C214.388 13.3361 215.296 13.9414 216.128 14.6224C216.885 15.3033 217.566 16.2113 217.945 17.2705C218.399 18.3298 218.626 19.4647 218.626 20.8266V47.535ZM206.214 47.4594C206.214 48.67 206.593 49.5779 207.274 50.2588C207.955 50.8641 208.863 51.1668 209.998 51.1668C211.133 51.1668 212.042 50.8641 212.723 50.2588C213.404 49.6535 213.782 48.7456 213.782 47.4594V20.9023C213.782 19.6917 213.404 18.7837 212.723 18.1028C212.042 17.4975 211.133 17.1949 209.998 17.1949C208.863 17.1949 207.955 17.4975 207.274 18.1028C206.593 18.7081 206.214 19.616 206.214 20.9023V47.4594Z" fill="#FA9401"/>
<path d="M240.347 47.535C240.347 48.8969 240.12 50.0319 239.666 51.0911C239.212 52.1504 238.606 52.9826 237.849 53.7393C237.092 54.4959 236.109 55.0255 235.049 55.4038C233.99 55.7821 232.854 55.9334 231.719 55.9334C230.508 55.9334 229.373 55.7821 228.313 55.4038C227.254 55.0255 226.346 54.4959 225.589 53.7393C224.832 52.9826 224.227 52.1504 223.772 51.0911C223.318 50.0319 223.091 48.8969 223.091 47.535V20.8266C223.091 19.4647 223.318 18.3298 223.772 17.2705C224.227 16.2113 224.832 15.379 225.589 14.6224C226.346 13.9414 227.254 13.3361 228.313 12.9578C229.373 12.5795 230.508 12.3525 231.719 12.3525C232.93 12.3525 233.99 12.5795 235.049 12.9578C236.109 13.3361 237.017 13.9414 237.849 14.6224C238.606 15.3033 239.287 16.2113 239.666 17.2705C240.12 18.3298 240.347 19.4647 240.347 20.8266V47.535ZM227.935 47.4594C227.935 48.67 228.313 49.5779 228.995 50.2588C229.676 50.8641 230.584 51.1668 231.719 51.1668C232.854 51.1668 233.762 50.8641 234.444 50.2588C235.125 49.6535 235.503 48.7456 235.503 47.4594V20.9023C235.503 19.6917 235.125 18.7837 234.444 18.1028C233.762 17.4975 232.854 17.1949 231.719 17.1949C230.584 17.1949 229.676 17.4975 228.995 18.1028C228.313 18.7081 227.935 19.616 227.935 20.9023V47.4594Z" fill="#FA9401"/>
<path d="M245.417 16.665C246.326 16.665 246.931 16.3623 247.309 15.7571C247.688 15.1518 247.839 14.2438 247.839 13.1846H252.759V55.2522H247.839V20.8264H243.298V16.665H245.417Z" fill="#FA9401"/>
<path d="M87.0908 70.8388C86.6367 71.0657 85.6528 71.3684 84.2905 71.3684C81.4903 71.3684 79.674 69.4769 79.674 66.9044C79.674 64.1806 81.6417 62.2134 84.5933 62.2134C85.6528 62.2134 86.561 62.516 87.0151 62.743L86.6367 63.9536C86.334 63.8023 85.6528 63.5753 84.669 63.5753C82.5499 63.5753 81.339 65.0129 81.339 66.8287C81.339 68.8716 82.7769 70.0822 84.5933 70.0822C85.5771 70.0822 86.2583 69.7795 86.7881 69.6282L87.0908 70.8388Z" fill="white"/>
<path d="M95.4916 69.0986C95.4916 69.8552 95.4915 70.6118 95.6429 71.2171H94.205L94.0536 70.0822H93.9779C93.5238 70.7631 92.4643 71.4441 91.102 71.4441C89.2099 71.4441 88.3018 70.0822 88.3018 68.9473C88.3018 66.8288 90.1181 65.6182 93.9022 65.6938V65.5425C93.9022 65.0129 93.7509 63.4997 91.7831 63.4997C90.8749 63.4997 89.9668 63.8023 89.2856 64.2563L88.9072 63.197C89.7397 62.6674 90.7993 62.3647 92.0102 62.3647C94.8861 62.3647 95.4916 64.4076 95.4916 66.0721V69.0986ZM93.9779 66.7531C92.0102 66.6774 89.9668 67.0557 89.9668 68.6446C89.9668 69.6282 90.6479 70.1578 91.5561 70.1578C92.8427 70.1578 93.5995 69.3256 93.9022 68.6446C93.9779 68.4933 93.9779 68.2663 93.9779 68.115V66.7531Z" fill="white"/>
<path d="M100.108 60.3975V62.516H102.53V63.7266H100.108V68.2662C100.108 69.3255 100.411 70.0821 101.395 70.0821C101.849 70.0821 102.152 70.0064 102.379 69.9308L102.454 71.1414C102.152 71.2927 101.622 71.3684 100.941 71.3684C100.184 71.3684 99.5783 71.0657 99.1999 70.6117C98.7458 70.0821 98.5945 69.2498 98.5945 68.3419V63.6509H97.2322V62.4403H98.5945V60.7758L100.108 60.3975Z" fill="white"/>
<path d="M110.931 69.0985C110.931 69.8551 110.931 70.6117 111.082 71.217H109.644L109.493 70.0821H109.417C108.963 70.763 107.903 71.444 106.541 71.444C104.649 71.444 103.741 70.0821 103.741 68.9472C103.741 66.8286 105.557 65.6181 109.341 65.6937V65.5424C109.341 65.0128 109.19 63.4996 107.222 63.4996C106.314 63.4996 105.406 63.8022 104.725 64.2562L104.346 63.1969C105.179 62.6673 106.238 62.3646 107.449 62.3646C110.325 62.3646 110.931 64.4075 110.931 66.072V69.0985ZM109.341 66.753C107.374 66.6773 105.33 67.0556 105.33 68.6445C105.33 69.6281 106.011 70.1577 106.919 70.1577C108.206 70.1577 108.963 69.3255 109.266 68.6445C109.341 68.4932 109.341 68.2662 109.341 68.1149V66.753ZM110.022 58.6572L107.752 61.3054H106.617L108.206 58.6572H110.022Z" fill="white"/>
<path d="M113.579 58.3545H115.169V71.2169H113.579V58.3545Z" fill="white"/>
<path d="M121.753 71.4441C119.18 71.4441 117.212 69.6282 117.212 66.9801C117.212 64.1049 119.256 62.2891 121.829 62.2891C124.553 62.2891 126.37 64.1806 126.37 66.7531C126.445 69.9309 124.024 71.4441 121.753 71.4441ZM121.829 70.2335C123.418 70.2335 124.78 69.0229 124.78 66.8287C124.78 65.3155 123.872 63.4996 121.829 63.4996C119.785 63.4996 118.877 65.1642 118.877 66.9044C118.877 68.9473 120.24 70.2335 121.829 70.2335Z" fill="white"/>
<path d="M136.435 69.8552C136.435 71.7467 135.981 73.1086 135.073 73.9409C134.165 74.7731 132.803 75.0001 131.743 75.0001C130.608 75.0001 129.397 74.6975 128.64 74.1679L129.019 72.8816C129.624 73.2599 130.608 73.6382 131.819 73.6382C133.56 73.6382 134.846 72.7303 134.846 70.4605V69.4769C134.316 70.3091 133.333 71.0658 131.819 71.0658C129.473 71.0658 127.883 69.1742 127.883 66.8287C127.883 63.9536 129.927 62.2134 132.046 62.2134C133.711 62.2134 134.619 63.0457 135.073 63.8779L135.149 62.4404H136.587C136.511 63.0457 136.511 63.7266 136.511 64.7102V69.8552H136.435ZM134.846 66.0721C134.846 65.7695 134.846 65.5425 134.77 65.3155C134.468 64.2562 133.56 63.4996 132.273 63.4996C130.684 63.4996 129.397 64.7859 129.397 66.8287C129.397 68.3419 130.305 69.9308 132.197 69.9308C133.333 69.9308 134.316 69.1742 134.619 68.1906C134.695 67.9636 134.77 67.5853 134.77 67.3583V66.0721H134.846Z" fill="white"/>
<path d="M143.02 71.4441C140.447 71.4441 138.479 69.6282 138.479 66.9801C138.479 64.1049 140.522 62.2891 143.095 62.2891C145.82 62.2891 147.636 64.1806 147.636 66.7531C147.712 69.9309 145.29 71.4441 143.02 71.4441ZM143.095 70.2335C144.685 70.2335 146.047 69.0229 146.047 66.8287C146.047 65.3155 145.139 63.4996 143.095 63.4996C141.052 63.4996 140.144 65.1642 140.144 66.9044C140.144 68.9473 141.506 70.2335 143.095 70.2335Z" fill="white"/>
<path d="M149.604 69.5526C150.134 69.8552 151.042 70.2335 151.875 70.2335C153.086 70.2335 153.615 69.6282 153.615 68.9473C153.615 68.1907 153.086 67.8124 151.875 67.434C150.21 66.9044 149.453 65.9965 149.453 64.9372C149.453 63.4997 150.588 62.3647 152.556 62.3647C153.464 62.3647 154.296 62.5917 154.826 62.97L154.448 64.1806C154.145 63.9536 153.388 63.651 152.48 63.651C151.496 63.651 150.966 64.1806 150.966 64.8616C150.966 65.6182 151.572 65.9208 152.783 66.2991C154.448 66.8288 155.129 67.5854 155.129 68.8716C155.129 70.3092 153.994 71.5198 151.723 71.5198C150.739 71.5198 149.755 71.2171 149.15 70.8388L149.604 69.5526Z" fill="white"/>
<path d="M162.167 61.0028C161.562 61.0028 161.183 60.5489 161.183 60.0192C161.183 59.4896 161.562 59.0356 162.167 59.0356C162.773 59.0356 163.151 59.4896 163.151 60.0192C163.227 60.5489 162.848 61.0028 162.167 61.0028ZM161.411 71.2171V62.5161H163V71.2171H161.411Z" fill="white"/>
<path d="M165.8 64.9372C165.8 64.0293 165.8 63.2727 165.724 62.516H167.162L167.238 64.0293H167.314C167.768 63.197 168.827 62.2891 170.417 62.2891C171.552 62.2891 173.671 62.97 173.671 66.2234V71.2171H172.082V66.3748C172.082 64.8615 171.476 63.651 169.887 63.651C168.752 63.651 167.843 64.4832 167.541 65.3155C167.465 65.5425 167.389 65.7695 167.389 66.0721V71.2171H165.8V64.9372Z" fill="white"/>
<path d="M178.288 60.3975V62.516H180.709V63.7266H178.288V68.2662C178.288 69.3255 178.59 70.0821 179.574 70.0821C180.028 70.0821 180.331 70.0064 180.558 69.9308L180.634 71.1414C180.331 71.2927 179.801 71.3684 179.12 71.3684C178.363 71.3684 177.758 71.0657 177.379 70.6117C176.925 70.0821 176.774 69.2498 176.774 68.3419V63.6509H175.412V62.4403H176.774V60.7758L178.288 60.3975Z" fill="white"/>
<path d="M183.358 67.207C183.358 69.1742 184.796 70.1578 186.537 70.1578C187.823 70.1578 188.58 69.9309 189.186 69.7039L189.488 70.8388C188.959 71.0658 187.899 71.4441 186.31 71.4441C183.51 71.4441 181.769 69.6282 181.769 67.0557C181.769 64.4832 183.434 62.2891 186.158 62.2891C189.261 62.2891 190.018 65.0129 190.018 66.4504C190.018 66.7531 190.018 66.9801 189.943 67.207H183.358ZM188.505 66.0721C188.505 65.3155 188.202 63.4996 186.083 63.4996C184.266 63.4996 183.51 65.0129 183.358 66.0721H188.505Z" fill="white"/>
<path d="M192.062 58.3545H193.651V71.2169H192.062V58.3545Z" fill="white"/>
<path d="M197.208 61.0028C196.603 61.0028 196.224 60.5489 196.224 60.0192C196.224 59.4896 196.603 59.0356 197.208 59.0356C197.814 59.0356 198.192 59.4896 198.192 60.0192C198.268 60.5489 197.889 61.0028 197.208 61.0028ZM196.451 71.2171V62.5161H198.041V71.2171H196.451Z" fill="white"/>
<path d="M208.787 69.8552C208.787 71.7467 208.333 73.1086 207.425 73.9409C206.517 74.7731 205.155 75.0001 204.095 75.0001C202.96 75.0001 201.749 74.6975 200.992 74.1679L201.371 72.8816C201.976 73.2599 202.96 73.6382 204.171 73.6382C205.912 73.6382 207.198 72.7303 207.198 70.4605V69.4769C206.668 70.3091 205.684 71.0658 204.171 71.0658C201.9 71.0658 200.235 69.1742 200.235 66.8287C200.235 63.9536 202.279 62.2134 204.398 62.2134C206.063 62.2134 206.971 63.0457 207.425 63.8779L207.501 62.4404H208.939C208.863 63.0457 208.863 63.7266 208.863 64.7102V69.8552H208.787ZM207.198 66.0721C207.198 65.7695 207.198 65.5425 207.122 65.3155C206.82 64.2562 205.912 63.4996 204.625 63.4996C202.96 63.4996 201.749 64.7859 201.749 66.8287C201.749 68.3419 202.657 69.9308 204.549 69.9308C205.684 69.9308 206.668 69.1742 206.971 68.1906C207.047 67.9636 207.122 67.5853 207.122 67.3583V66.0721H207.198Z" fill="white"/>
<path d="M212.344 67.207C212.344 69.1742 213.782 70.1578 215.523 70.1578C216.81 70.1578 217.567 69.9309 218.172 69.7039L218.475 70.8388C217.945 71.0658 216.885 71.4441 215.296 71.4441C212.496 71.4441 210.755 69.6282 210.755 67.0557C210.755 64.4832 212.344 62.2891 215.145 62.2891C218.248 62.2891 219.004 65.0129 219.004 66.4504C219.004 66.7531 219.004 66.9801 218.929 67.207H212.344ZM217.491 66.0721C217.491 65.3155 217.188 63.4996 215.069 63.4996C213.253 63.4996 212.496 65.0129 212.344 66.0721H217.491Z" fill="white"/>
<path d="M221.124 64.9372C221.124 64.0293 221.124 63.2727 221.048 62.516H222.486L222.561 64.0293H222.637C223.091 63.197 224.151 62.2891 225.74 62.2891C226.875 62.2891 228.994 62.97 228.994 66.2234V71.2171H227.405V66.3748C227.405 64.8615 226.8 63.651 225.21 63.651C224.075 63.651 223.167 64.4832 222.864 65.3155C222.789 65.5425 222.713 65.7695 222.713 66.0721V71.2171H221.124V64.9372Z" fill="white"/>
<path d="M233.611 60.3975V62.516H236.033V63.7266H233.611V68.2662C233.611 69.3255 233.914 70.0821 234.898 70.0821C235.352 70.0821 235.654 70.0064 235.882 69.9308L235.957 71.1414C235.654 71.2927 235.125 71.3684 234.444 71.3684C233.687 71.3684 233.081 71.0657 232.703 70.6117C232.249 70.0821 232.097 69.2498 232.097 68.3419V63.6509H230.735V62.4403H232.097V60.7758L233.611 60.3975Z" fill="white"/>
<path d="M238.682 67.207C238.682 69.1742 240.12 70.1578 241.86 70.1578C243.147 70.1578 243.904 69.9309 244.509 69.7039L244.812 70.8388C244.282 71.0658 243.223 71.4441 241.633 71.4441C238.833 71.4441 237.092 69.6282 237.092 67.0557C237.092 64.4832 238.682 62.2891 241.482 62.2891C244.585 62.2891 245.342 65.0129 245.342 66.4504C245.342 66.7531 245.342 66.9801 245.266 67.207H238.682ZM243.828 66.0721C243.828 65.3155 243.525 63.4996 241.406 63.4996C239.59 63.4996 238.833 65.0129 238.682 66.0721H243.828Z" fill="white"/>
<path d="M247.234 69.5526C247.764 69.8552 248.672 70.2335 249.504 70.2335C250.715 70.2335 251.245 69.6282 251.245 68.9473C251.245 68.1907 250.715 67.8124 249.504 67.434C247.839 66.9044 247.083 65.9965 247.083 64.9372C247.083 63.4997 248.218 62.3647 250.185 62.3647C251.094 62.3647 251.926 62.5917 252.456 62.97L252.078 64.1806C251.775 63.9536 251.018 63.651 250.11 63.651C249.126 63.651 248.596 64.1806 248.596 64.8616C248.596 65.6182 249.202 65.9208 250.413 66.2991C252.078 66.8288 252.759 67.5854 252.759 68.8716C252.759 70.3092 251.623 71.5198 249.353 71.5198C248.369 71.5198 247.385 71.2171 246.78 70.8388L247.234 69.5526Z" fill="white"/>
<path d="M69.6839 28.998C68.7001 25.3662 68.246 23.4747 67.6405 20.5239C67.0351 20.5996 61.586 17.1191 62.2671 11.2932C59.5426 8.94771 58.256 7.58581 55.5314 5.01333C55.2287 5.61862 52.5798 6.60221 50.0823 5.61862C47.5848 4.63502 45.4657 2.89481 44.9359 0.322327C40.5464 0.095343 38.6543 -0.0559795 34.4918 0.0196817C35.0216 1.38158 34.9459 2.21386 34.5675 3.42444C34.1891 4.71068 32.8268 5.99692 31.4646 6.60221C27.9075 8.11544 23.5179 5.92126 22.6098 5.24031C19.9609 8.49375 17.5391 11.3689 14.8902 15.1519C17.2363 16.2869 18.4473 20.2969 18.4473 22.4911C18.4473 25.8202 15.9497 29.9059 12.2413 30.2085C13.6793 36.0345 14.5118 38.153 16.4038 44.3572C25.0316 44.1302 27.6805 51.1667 26.6209 55.782C30.3293 57.2953 33.8107 59.1111 37.2921 60.4731V52.3773C26.9993 48.1403 20.3393 35.8075 22.0043 24.307C22.9882 17.5731 26.7723 11.8228 32.2971 8.72073C37.4434 5.76994 43.4223 5.39163 49.3255 7.58581C49.6282 7.66147 49.9309 7.81279 50.158 7.88846C60.0723 11.9742 66.4296 22.6424 65.2944 33.689C64.5376 41.0281 60.7535 47.081 54.3205 50.7127L53.1853 59.0355C55.3044 58.1275 57.2721 56.9926 59.0885 55.5551C58.256 52.6043 63.1753 46.7784 65.9755 47.3836C67.1864 43.9789 67.7919 42.39 69.0028 39.2122C66.581 38.9852 66.808 29.3763 69.6839 28.998Z" fill="white"/>
<path d="M54.0178 62.9697L36.9894 65.6179L37.1407 70.5359L41.606 70.9142C41.7573 73.1083 43.5737 74.8485 45.6928 74.8485C47.8119 74.8485 49.5526 73.1083 49.7796 70.9142L54.2449 70.5359L54.0178 62.9697Z" fill="white"/>
<path d="M54.3962 50.7883C58.4074 47.9888 61.1319 43.7518 62.3428 39.1365C63.5538 34.5211 63.7051 28.7709 62.0401 24.4582C60.4508 20.1455 58.1803 16.5138 54.6233 13.9413C51.0662 11.3688 46.9037 10.0069 42.2114 10.3852C38.0489 10.6878 33.2053 12.882 30.3294 15.9841C27.4535 19.0862 25.7128 23.3989 25.4857 27.8629C25.183 32.327 26.3939 36.9423 28.6644 40.8767C30.8591 44.8111 34.2648 48.1402 38.276 50.0317L39.2598 50.4857L39.1842 51.4693C39.0328 54.7227 38.9571 57.9761 38.7301 61.2296C38.7301 61.2296 42.9683 61.0783 45.0874 61.0783C47.5849 61.0026 50.0824 61.0026 52.5799 61.0026C50.0824 61.4566 47.6605 61.8349 45.163 62.2888C42.6655 62.6671 40.168 63.0454 37.7462 63.4238L36.6867 63.5751L36.611 62.3645C36.3839 59.1111 36.1569 52.6042 36.1569 52.6042C36.1569 52.6042 36.0812 52.6042 36.0055 52.5285C26.848 48.5185 20.5664 38.3799 20.8691 27.5603C21.0205 22.037 23.1396 16.4381 26.848 12.3524C30.5564 8.34234 35.8542 5.92118 41.1519 5.76985C43.8008 5.69419 46.4496 6.14816 48.8715 7.0561C51.2933 7.96403 53.6394 9.25027 55.7585 10.8392C59.921 14.0926 63.024 18.7836 64.5376 23.8529C66.0513 28.9979 65.8999 34.5968 64.0835 39.5148C62.3428 44.5841 58.7858 48.7455 54.3962 50.7883Z" fill="#FA9401"/>
</svg>
